<?xml version="1.0" encoding="utf-8"?>
<svg width="51px" height="51px" viewBox="0 0 51 51" version="1.1" xmlns:xlink="http://www.w3.org/1999/xlink" xmlns="http://www.w3.org/2000/svg">
  <desc>Created with Lunacy</desc>
  <path d="M25.5 0C11.4167 0 0 11.4167 0 25.5C0 37.96 8.93664 48.3328 20.75 50.5584L20.75 32L16 32L16 26.0625L20.75 26.0625L20.75 20.125C20.75 16.1896 23.9396 13 27.875 13L32.625 13L32.625 18.9375L30.25 18.9375C28.939 18.9375 27.875 20.0015 27.875 21.3125L27.875 26.0625L35 26.0625L32.625 32L27.875 32L27.875 50.8909C40.8447 49.693 51 38.7824 51 25.5C51 11.4167 39.5833 0 25.5 0Z" id="Mask-Difference" fill="#000000" fill-rule="evenodd" stroke="none" />
</svg>