<?xml version="1.0" encoding="utf-8"?>
<svg width="51px" height="51px" viewBox="0 0 51 51" version="1.1" xmlns:xlink="http://www.w3.org/1999/xlink" xmlns="http://www.w3.org/2000/svg">
  <desc>Created with Lunacy</desc>
  <path d="M25.5 0C11.4167 0 0 11.4167 0 25.5C0 39.5833 11.4167 51 25.5 51C39.5833 51 51 39.5833 51 25.5C51 11.4167 39.5833 0 25.5 0ZM38.4563 17.8569C39.6956 17.6994 40.8844 17.375 42 16.8856C41.1637 18.1306 40.1381 19.2125 38.9175 20.0788C38.9306 20.3394 38.94 20.6019 38.94 20.8738C38.94 29 32.7525 38.375 21.435 38.375C17.9531 38.375 14.7244 37.3719 12 35.615C12.4838 35.6769 12.9675 35.6994 13.4719 35.6994C16.3481 35.6994 19.005 34.7131 21.0975 33.0762C18.4088 33.0181 16.1475 31.2275 15.3506 28.7919C15.7238 28.8744 16.1213 28.8969 16.515 28.8969C17.0813 28.8969 17.6269 28.8312 18.1275 28.6944C15.3319 28.1225 13.2 25.64 13.2 22.6513L13.2 22.5838C14.0213 23.0356 14.9906 23.3225 15.9788 23.3413C14.3438 22.2481 13.2469 20.36 13.2469 18.23C13.2469 17.0956 13.5581 16.0419 14.0888 15.1213C17.1281 18.8544 21.6525 21.305 26.7656 21.5544C26.6644 21.1081 26.6231 20.6394 26.6231 20.1519C26.6231 16.7638 29.3644 14 32.7694 14C34.5244 14 36.1331 14.7444 37.2619 15.9462C38.6606 15.6669 39.9731 15.1663 41.1619 14.4575C40.7044 15.8994 39.7313 17.0956 38.4563 17.8569Z" id="Ellipse-Difference" fill="#000000" fill-rule="evenodd" stroke="none" />
</svg>